:SAMPLES-PER-SECOND 30
:FRAME-RANGE 1-1770
:FULLY-SPECIFIED
:DEGREES
1715
root  29.5656 35.7674 58.6722 -0.472931 41.9929 0.055542
RightUpLeg  -30.9709 6.76893 0.714515
RightLeg  47.8163 -0.777104 -1.25115
RightFoot  -14.1537 -0.0784798 0.705808
RightToes  -1.33073e-015 0 -3.6325e-017
Spine  16.8919 -0.667662 1.46578
Spine1  8.51105 -0.355784 -0.122775
HEad  9.73281 39.6533 -12.0022
LeftShoulder1  2.13203 -6.1647 -16.0098
LeftArm  -3.801 -30.618 -67.2121
LeftForeArm  33.7495 2.15958 -9.63835
LeftHand  -0.0743693 4.46202 7.08868
RightShoulder  2.12719 3.58875 24.8048
RightArm  -22.9966 12.7657 48.78
RightForeArm  63.6545 -5.66164 4.23312
RightHand  0.287437 -6.87355 -22.9766
LeftUpLeg  -40.9475 6.87813 1.78773
LeftLeg  46.5302 2.44883 3.20023
LeftFoot  -6.33528 0.167955 -2.97197
LeftToes  1.09107e-011 -1.16422e-010 2.98337e-011
1716
root  30.3196 36.0943 59.2638 0.258759 41.0045 0.440002
RightUpLeg  -28.9867 7.78003 0.321883
RightLeg  46.3715 -0.890204 -1.31915
RightFoot  -15.3091 -0.0380778 1.89329
RightToes  -1.33073e-015 0 -3.6325e-017
Spine  15.6655 -0.622383 1.17702
Spine1  8.51654 -0.233904 -0.45809
HEad  10.0775 39.4476 -12.4543
LeftShoulder1  2.16214 -5.96747 -16.8855
LeftArm  -5.55845 -25.3864 -63.465
LeftForeArm  30.9805 4.948 -9.64592
LeftHand  -0.0593876 4.69399 6.72375
RightShoulder  2.18162 3.94758 23.9939
RightArm  -18.255 19.0822 50.8957
RightForeArm  59.5076 -6.15164 6.34045
RightHand  0.182596 -6.26812 -24.6998
LeftUpLeg  -39.0379 6.27127 1.861
LeftLeg  33.2812 1.83178 1.66369
LeftFoot  -0.782305 0.397824 -4.25427
LeftToes  1.09107e-011 -1.16422e-010 2.98337e-011
1717
root  31.1395 36.2266 59.8547 0.637238 39.6499 0.994995
RightUpLeg  -27.213 9.18585 -0.340145
RightLeg  46.2769 -0.704619 -1.1064
RightFoot  -17.1547 -0.0477187 1.34706
RightToes  -1.33073e-015 0 -3.6325e-017
Spine  14.1905 -0.47963 0.937057
Spine1  8.87639 -0.0423986 -0.784027
HEad  10.74 39.0538 -12.4778
LeftShoulder1  2.24333 -5.95124 -17.8824
LeftArm  -6.60021 -19.7773 -59.6439
LeftForeArm  29.3057 7.43273 -9.86075
LeftHand  -0.0506491 4.80042 5.98092
RightShoulder  2.09528 4.03228 22.3773
RightArm  -16.2976 25.8382 54.9458
RightForeArm  60.0468 -5.24386 6.44092
RightHand  0.146638 -6.14218 -23.5639
LeftUpLeg  -36.3765 5.2149 2.15196
LeftLeg  23.5156 2.4829 1.52953
LeftFoot  1.61529 0.64111 -5.73037
LeftToes  1.09107e-011 -1.16422e-010 2.98337e-011
1718
root  31.9788 36.2094 60.4125 -0.102295 37.4266 1.21497
RightUpLeg  -24.9583 11.4896 -0.519719
RightLeg  46.9305 -0.719373 -1.14472
RightFoot  -19.1664 -0.00878815 1.76874
RightToes  -1.33073e-015 0 -3.6325e-017
Spine  13.1515 -0.209155 1.07668
Spine1  9.49792 0.529653 -1.73327
HEad  12.2019 38.7714 -12.0793
LeftShoulder1  2.27976 -5.60151 -19.3517
LeftArm  -6.78758 -14.2572 -55.774
LeftForeArm  29.7743 7.54995 -10.639
LeftHand  -0.0359144 5.07532 4.89918
RightShoulder  2.15144 4.707 20.5668
RightArm  -13.8595 33.6809 58.9651
RightForeArm  60.7824 -5.87679 6.27114
RightHand  0.105479 -5.97651 -22.4018
LeftUpLeg  -33.5437 3.4983 3.33199
LeftLeg  19.6839 6.36167 2.86026
LeftFoot  -0.308717 0.673755 -6.9531
LeftToes  1.09107e-011 -1.16422e-010 2.98337e-011
1719
root  32.8486 36.0995 60.9598 -0.78186 35.3572 1.44006
RightUpLeg  -22.8993 13.533 -0.757046
RightLeg  47.9051 -0.588999 -1.02569
RightFoot  -21.5936 -0.0137177 1.47715
RightToes  -1.33073e-015 0 -3.6325e-017
Spine  12.1633 0.102752 1.02744
Spine1  9.91941 0.915842 -2.22455
HEad  13.5981 38.5107 -11.6913
LeftShoulder1  2.22197 -4.88229 -21.0049
LeftArm  -6.83513 -8.83249 -52.0866
LeftForeArm  31.5198 7.62435 -11.2637
LeftHand  -0.0149104 5.70655 4.20826
RightShoulder  2.21824 5.42458 19.0237
RightArm  -10.9682 41.3526 63.4954
RightForeArm  62.7833 -5.97482 5.94802
RightHand  0.124764 -6.10487 -21.6609
LeftUpLeg  -31.5905 2.10708 3.79056
LeftLeg  19.2986 7.74376 3.707
LeftFoot  8.84532 1.16432 -6.83958
LeftToes  1.09107e-011 -1.16422e-010 2.98337e-011
1720
root  33.6889 36.0614 61.499 -0.31897 35.026 2.1347
RightUpLeg  -21.3895 13.8829 -1.67929
RightLeg  48.3414 -0.444813 -0.867247
RightFoot  -23.6862 0.0969942 2.38112
RightToes  -1.33073e-015 0 -3.6325e-017
Spine  11.0684 0.279405 0.579273
Spine1  9.83869 0.874496 -1.96453
HEad  14.2113 37.1844 -11.105
LeftShoulder1  2.23965 -4.61632 -22.2127
LeftArm  -6.54563 -4.20793 -48.9347
LeftForeArm  32.9806 7.69835 -11.8776
LeftHand  -0.00516735 6.21426 3.45868
RightShoulder  2.2228 5.77982 18.0059
RightArm  -9.31819 47.1853 67.8574
RightForeArm  66.4132 -5.6196 4.58753
RightHand  0.19629 -6.51866 -21.1474
LeftUpLeg  -31.7485 1.62809 2.76085
LeftLeg  21.4807 7.66775 3.73941
LeftFoot  12.1287 0.343689 -2.01269
LeftToes  1.09107e-011 -1.16422e-010 2.98337e-011
1721
root  34.5444 36.1642 62.0242 0.284576 36.2023 2.46552
RightUpLeg  -19.5062 13.0473 -2.41409
RightLeg  47.6318 -0.538755 -0.960184
RightFoot  -25.1315 0.158723 2.72173
RightToes  -1.33073e-015 0 -3.6325e-017
Spine  9.87636 0.42813 1.22726
Spine1  9.64721 0.919397 -1.80539
HEad  13.8935 34.349 -10.3227
LeftShoulder1  2.31927 -4.76807 -22.6958
LeftArm  -6.50753 -0.878249 -46.9204
LeftForeArm  34.497 7.73614 -12.2787
LeftHand  0.00291085 6.736 3.0776
RightShoulder  2.12926 5.84772 16.695
RightArm  -8.83838 50.0233 70.232
RightForeArm  66.7334 -5.41641 3.43515
RightHand  0.233554 -6.76908 -20.5262
LeftUpLeg  -32.4186 1.17949 1.53824
LeftLeg  24.917 6.90259 3.83642
LeftFoot  8.37872 0.376391 -2.45981
LeftToes  1.09107e-011 -1.16422e-010 2.98337e-011
1722
root  35.42 36.3932 62.5594 0.658203 36.6378 2.08069
RightUpLeg  -17.2382 13.2624 -2.4411
RightLeg  45.5019 -0.96441 -1.36257
RightFoot  -25.7965 0.242748 3.29373
RightToes  -1.33073e-015 0 -3.6325e-017
Spine  8.23102 1.06666 3.07042
Spine1  9.94016 1.88078 -2.6661
HEad  13.8055 31.0125 -9.14504
LeftShoulder1  2.20095 -4.40678 -22.4948
LeftArm  -7.09316 1.54404 -46.0004
LeftForeArm  35.8948 7.70263 -12.2171
LeftHand  0.00353397 7.13312 2.59278
RightShoulder  2.01606 5.5026 16.2804
RightArm  -9.19061 51.0061 70.6225
RightForeArm  64.7544 -4.40435 3.04624
RightHand  0.243414 -6.81125 -20.7002
LeftUpLeg  -32.2949 1.59416 0.931927
LeftLeg  26.6411 6.14725 3.69233
LeftFoot  5.79663 0.30143 -2.23463
LeftToes  1.09107e-011 -1.16422e-010 2.98337e-011
1723
root  36.3181 36.6909 63.0982 1.43506 36.5536 1.74622
RightUpLeg  -15.1166 13.3267 -2.71735
RightLeg  42.5308 -0.953344 -1.22697
RightFoot  -25.9994 0.293066 3.64962
RightToes  -1.33073e-015 0 -3.6325e-017
Spine  6.26644 1.9147 4.11708
Spine1  9.99955 2.94586 -3.3942
HEad  14.5914 28.6855 -8.14574
LeftShoulder1  1.8937 -3.38278 -22.2524
LeftArm  -7.40869 4.46005 -45.3085
LeftForeArm  36.1379 7.6749 -12.0658
LeftHand  -0.00294957 7.21767 2.12861
RightShoulder  2.04637 5.51161 16.6312
RightArm  -8.69394 50.8307 68.9823
RightForeArm  60.3365 -1.3512 4.50552
RightHand  0.100708 -6.0035 -20.8761
LeftUpLeg  -31.8278 1.59637 0.498411
LeftLeg  27.1468 6.18261 3.78354
LeftFoot  3.84656 0.188085 -1.58611
LeftToes  1.09107e-011 -1.16422e-010 2.98337e-011
1724
root  37.2902 37.0102 63.6557 2.73087 37.0998 2.14026
RightUpLeg  -12.9313 11.9498 -3.86768
RightLeg  39.4853 -0.215634 -0.462496
RightFoot  -25.9671 0.299643 3.70727
RightToes  -1.33073e-015 0 -3.6325e-017
Spine  4.02528 2.48371 3.94555
Spine1  10.0457 3.46176 -3.51055
HEad  15.6154 26.9326 -7.25406
LeftShoulder1  1.63341 -2.55982 -21.754
LeftArm  -7.17003 8.19465 -44.8322
LeftForeArm  34.4016 7.69393 -11.9957
LeftHand  -0.00976829 6.95636 1.90178
RightShoulder  2.10785 5.60124 17.1316
RightArm  -8.91956 49.8815 67.0886
RightForeArm  58.1131 1.09845 5.55314
RightHand  -0.0365496 -5.23711 -20.2134
LeftUpLeg  -30.895 0.243081 -0.478639
LeftLeg  26.7628 6.96852 4.15436
LeftFoot  2.08883 0.123195 -1.15404
LeftToes  1.09107e-011 -1.16422e-010 2.98337e-011
